<?xml version="1.0" encoding="UTF-8"?>
<!DOCTYPE svg PUBLIC "-//W3C//DTD SVG 1.1//EN" "http://www.w3.org/Graphics/SVG/1.1/DTD/svg11.dtd">
<!-- Creator: CorelDRAW 2018 (64 Bit) -->
<svg xmlns="http://www.w3.org/2000/svg" xml:space="preserve" width="58.5279mm" height="34.7114mm" version="1.1" style="shape-rendering:geometricPrecision; text-rendering:geometricPrecision; image-rendering:optimizeQuality; fill-rule:evenodd; clip-rule:evenodd"
viewBox="0 0 4921.24 2918.66"
 xmlns:xlink="http://www.w3.org/1999/xlink">
 <defs>
  <style type="text/css">
   <![CDATA[
    .fil0 {fill:#FEFEFE}
    .fil1 {fill:#FEFEFE;fill-rule:nonzero}
   ]]>
  </style>
 </defs>
 <g id="Capa_x0020_1">
  <metadata id="CorelCorpID_0Corel-Layer"/>
  <path class="fil0" d="M36.94 877.68l0 1216.18c0,76.87 86.24,163.15 163.15,163.15l941.8 0c226.4,-1.85 216.36,-348.54 12.97,-348.54l-532.07 0c-161.65,0 -177.1,-289.73 0.7,-289.73 157.97,0 315.99,2.67 473.91,0 182.23,-3.08 179.33,-362.85 0,-362.85l-511.69 0c-140.92,0 -133.49,-237.3 0,-237.3l556.18 0c220.62,0 207.63,-355.96 0,-355.96 -311.46,0 -625.88,0 -934.38,0 -91.49,0 -170.56,119.88 -170.56,215.06z"/>
  <path class="fil0" d="M1468.61 806.5l0 1323.7c0,178.65 415.28,166.28 415.28,0l0 -344.84c0,-54.19 60.75,-114.94 114.94,-114.94l252.13 0c593.25,0 548.74,-989.99 66.75,-989.99l-682.25 0c-101.22,0 -166.86,56.38 -166.86,126.07zm599.34 209.81c112.12,0 203.01,70.13 203.01,156.65 0,86.52 -90.89,156.66 -203.01,156.66 -112.11,0 -203,-70.13 -203,-156.66 0,-86.51 90.89,-156.65 203,-156.65z"/>
  <path class="fil0" d="M250.23 2918.66c320.82,-184.83 810.99,-243.62 1416.4,-163.15 393,52.24 771.58,73.58 1149.41,49.86 -140.51,86.65 -390.59,119.13 -1067.86,44.5 -670.64,-73.9 -1146.99,-22.61 -1497.95,68.79z"/>
  <polygon class="fil1" points="3158.15,2824.28 3158.15,2604.99 3076.27,2604.99 3076.27,2575.85 3273,2575.85 3273,2604.99 3191.11,2604.99 3191.11,2824.28 "/>
  <path id="1" class="fil1" d="M3253.97 2824.28l95.3 -248.42 36.14 0 101.14 248.42 -37.42 0 -28.74 -75.29 -104.61 0 -26.95 75.29 -34.87 0zm71.47 -102.01l84.66 0 -25.91 -68.87c-7.81,-20.93 -13.71,-38.22 -17.81,-51.86 -3.41,16.19 -7.98,32.09 -13.71,47.82l-27.24 72.92z"/>
  <path id="2" class="fil1" d="M3689.58 2737.13l32.96 8.32c-6.88,27.01 -19.26,47.53 -37.12,61.7 -17.87,14.17 -39.73,21.28 -65.58,21.28 -26.71,0 -48.46,-5.43 -65.23,-16.36 -16.77,-10.87 -29.49,-26.66 -38.22,-47.31 -8.73,-20.7 -13.13,-42.85 -13.13,-66.56 0,-25.85 4.92,-48.4 14.81,-67.65 9.89,-19.26 23.94,-33.89 42.15,-43.89 18.22,-10.01 38.28,-14.98 60.14,-14.98 24.86,0 45.74,6.3 62.63,18.97 16.94,12.66 28.74,30.41 35.39,53.31l-32.27 7.63c-5.73,-18.04 -14.11,-31.22 -25.04,-39.44 -10.92,-8.27 -24.69,-12.38 -41.29,-12.38 -19.03,0 -34.99,4.57 -47.77,13.71 -12.78,9.14 -21.79,21.46 -26.94,36.84 -5.2,15.44 -7.81,31.34 -7.81,47.71 0,21.1 3.07,39.55 9.2,55.28 6.13,15.78 15.66,27.52 28.62,35.33 12.95,7.8 26.95,11.68 42.04,11.68 18.39,0 33.89,-5.32 46.61,-15.9 12.72,-10.64 21.34,-26.38 25.85,-47.31z"/>
  <polygon id="3" class="fil1" points="3762.84,2824.28 3762.84,2575.85 3796.61,2575.85 3926.96,2770.84 3926.96,2575.85 3958.53,2575.85 3958.53,2824.28 3924.76,2824.28 3794.42,2629.29 3794.42,2824.28 "/>
  <path id="4" class="fil1" d="M3986.51 2824.28l95.3 -248.42 36.14 0 101.14 248.42 -37.42 0 -28.74 -75.29 -104.61 0 -26.95 75.29 -34.87 0zm71.47 -102.01l84.66 0 -25.91 -68.87c-7.81,-20.93 -13.71,-38.22 -17.81,-51.86 -3.41,16.19 -7.98,32.09 -13.71,47.82l-27.24 72.92z"/>
  <path id="5" class="fil1" d="M4311.68 2744.47l30.88 -2.77c1.45,12.49 4.85,22.73 10.23,30.77 5.38,7.98 13.71,14.45 24.98,19.43 11.28,4.91 24,7.4 38.11,7.4 12.55,0 23.59,-1.85 33.2,-5.61 9.59,-3.76 16.71,-8.9 21.39,-15.44 4.68,-6.53 7.05,-13.65 7.05,-21.28 0,-7.75 -2.25,-14.51 -6.76,-20.36 -4.52,-5.78 -11.97,-10.64 -22.38,-14.63 -6.65,-2.55 -21.39,-6.59 -44.24,-12.08 -22.85,-5.5 -38.8,-10.64 -47.94,-15.5 -11.86,-6.25 -20.65,-14 -26.43,-23.19 -5.84,-9.2 -8.74,-19.55 -8.74,-30.94 0,-12.6 3.59,-24.34 10.7,-35.21 7.11,-10.93 17.46,-19.2 31.16,-24.86 13.66,-5.67 28.86,-8.5 45.57,-8.5 18.39,0 34.63,2.95 48.69,8.9 14.05,5.89 24.86,14.63 32.44,26.19 7.58,11.51 11.62,24.58 12.2,39.15l-31.57 2.43c-1.68,-15.67 -7.41,-27.52 -17.18,-35.51 -9.77,-8.03 -24.22,-12.02 -43.31,-12.02 -19.89,0 -34.41,3.64 -43.49,10.93 -9.07,7.28 -13.65,16.08 -13.65,26.37 0,8.9 3.24,16.24 9.66,22.03 6.36,5.73 22.84,11.68 49.56,17.7 26.71,6.07 45.04,11.33 54.99,15.84 14.4,6.65 25.1,15.03 31.98,25.27 6.89,10.18 10.29,21.92 10.29,35.22 0,13.24 -3.76,25.61 -11.33,37.3 -7.58,11.68 -18.39,20.76 -32.56,27.23 -14.16,6.47 -30.07,9.71 -47.82,9.71 -22.43,0 -41.23,-3.3 -56.38,-9.83 -15.21,-6.53 -27.07,-16.36 -35.69,-29.55 -8.67,-13.13 -13.18,-27.99 -13.65,-44.59z"/>
  <polygon id="6" class="fil1" points="4558.72,2824.28 4558.72,2789.58 4593.41,2789.58 4593.41,2824.28 "/>
  <path id="7" class="fil1" d="M4623.03 2824.28l95.3 -248.42 36.14 0 101.14 248.42 -37.42 0 -28.74 -75.29 -104.61 0 -26.95 75.29 -34.87 0zm71.47 -102.01l84.66 0 -25.91 -68.87c-7.81,-20.93 -13.71,-38.22 -17.81,-51.86 -3.41,16.19 -7.98,32.09 -13.71,47.82l-27.24 72.92z"/>
  <polygon id="8" class="fil1" points="4886.54,2824.28 4886.54,2789.58 4921.24,2789.58 4921.24,2824.28 "/>
  <polygon class="fil1" points="68.15,453.74 98.59,190.63 -0,190.63 3.95,157.08 236.86,157.08 232.9,190.63 137.52,190.63 107.08,453.74 "/>
  <path id="1" class="fil1" d="M206.9 453.74l24.54 -215.04 32.3 0 -5.12 43.99c9.55,-16.51 19.15,-28.73 28.94,-36.67 9.72,-7.95 20.08,-11.88 31,-11.88 7.17,0 16.29,2.62 27.29,7.87l-11.64 33.98c-6.72,-4.69 -13.82,-7.05 -21.26,-7.05 -12.71,0 -25.09,7.19 -37.16,21.48 -12.07,14.29 -20.31,39.98 -24.61,77.13l-9.85 86.19 -34.42 0z"/>
  <path id="2" class="fil1" d="M483.85 427.02c-11.56,10.91 -22.92,18.85 -34.01,23.82 -11.15,4.97 -23.35,7.46 -36.59,7.46 -19.59,0 -35.9,-5.8 -48.99,-17.47 -13.08,-11.6 -20.46,-26.52 -22.12,-44.68 -1.1,-12.02 0.66,-22.58 5.21,-31.83 4.55,-9.18 11.04,-16.57 19.4,-22.16 8.43,-5.59 18.99,-9.6 31.75,-12.02 8.04,-1.66 23.43,-2.9 46.15,-3.87 22.72,-0.97 38.88,-3.38 48.43,-7.25 1.88,-10.01 2.55,-18.3 1.94,-24.93 -0.77,-8.49 -4.46,-15.13 -11.06,-20.03 -9.07,-6.69 -21.69,-10.08 -37.93,-10.08 -15.23,0 -27.41,3.39 -36.54,10.22 -9.07,6.84 -15.21,16.57 -18.5,29.13l-36.77 -3.31c5.5,-21.26 15.81,-37.57 30.96,-48.89 15.14,-11.33 35.04,-16.99 59.69,-16.99 26.22,0 47.56,6.36 64.08,18.99 12.54,9.46 19.54,21.75 20.92,36.8 1.05,11.46 0.63,24.72 -1.27,39.85l-6.78 53.38c-2.14,16.99 -2.71,30.8 -1.73,41.44 0.62,6.77 2.94,16.44 7.04,29.14l-36.6 0c-2.62,-7.05 -4.86,-15.88 -6.68,-26.72zm6.05 -82.25c-4.94,2 -10.26,3.59 -15.97,4.62 -5.76,1.11 -15.42,2.28 -28.9,3.46 -20.93,1.87 -35.53,4.28 -43.93,7.18 -8.4,2.9 -14.53,7.53 -18.32,13.88 -3.86,6.36 -5.4,13.33 -4.69,21 0.94,10.28 5.19,18.71 12.82,25.28 7.58,6.63 17.85,9.94 30.83,9.94 12.02,0 23.27,-3.18 33.73,-9.59 10.48,-6.42 18.4,-15.34 23.83,-26.8 5.36,-11.46 8.93,-27.76 10.6,-48.96z"/>
  <path id="3" class="fil1" d="M571.17 453.74l34.26 -296.66 35.98 0 -12.47 106.07c10.16,-10.64 19.57,-18.09 28.26,-22.45 8.69,-4.35 17.9,-6.56 27.81,-6.56 19.26,0 36.05,7.46 50.32,22.44 14.28,14.92 22.69,36.67 25.31,65.19 1.74,18.99 0.74,36.39 -3.02,52.14 -3.74,15.74 -9.01,28.93 -15.68,39.64 -6.67,10.7 -13.8,19.27 -21.41,25.69 -7.61,6.36 -15.58,11.12 -23.88,14.29 -8.25,3.18 -16.37,4.77 -24.28,4.77 -13.66,0 -26.01,-3.66 -37.14,-11.05 -11.05,-7.39 -20.22,-18.72 -27.41,-33.84l-4.83 40.33 -31.83 0zm45.34 -87.91l0.35 6.84c1.67,18.23 7.11,32.04 16.44,41.57 9.27,9.46 20.15,14.23 32.72,14.23 12.36,0 23.22,-4.49 32.7,-13.46 9.43,-8.91 16.61,-22.93 21.49,-41.92 4.89,-18.99 6.55,-36.53 5.09,-52.55 -1.66,-18.02 -7.11,-32.04 -16.35,-41.98 -9.25,-10.01 -20.08,-14.98 -32.38,-14.98 -12.63,0 -23.83,5.11 -33.48,15.26 -9.64,10.22 -17.09,25.82 -22.26,47.03 -3.87,15.88 -5.31,29.21 -4.32,39.98z"/>
  <path id="4" class="fil1" d="M939.55 427.02c-11.56,10.91 -22.92,18.85 -34,23.82 -11.15,4.97 -23.35,7.46 -36.6,7.46 -19.59,0 -35.9,-5.8 -48.99,-17.47 -13.07,-11.6 -20.46,-26.52 -22.12,-44.68 -1.1,-12.02 0.66,-22.58 5.21,-31.83 4.55,-9.18 11.05,-16.57 19.41,-22.16 8.43,-5.59 18.99,-9.6 31.74,-12.02 8.04,-1.66 23.43,-2.9 46.15,-3.87 22.72,-0.97 38.89,-3.38 48.43,-7.25 1.88,-10.01 2.56,-18.3 1.94,-24.93 -0.77,-8.49 -4.46,-15.13 -11.05,-20.03 -9.08,-6.69 -21.69,-10.08 -37.93,-10.08 -15.24,0 -27.42,3.39 -36.55,10.22 -9.07,6.84 -15.21,16.57 -18.5,29.13l-36.77 -3.31c5.5,-21.26 15.82,-37.57 30.96,-48.89 15.14,-11.33 35.05,-16.99 59.69,-16.99 26.22,0 47.56,6.36 64.08,18.99 12.55,9.46 19.55,21.75 20.93,36.8 1.05,11.46 0.62,24.72 -1.27,39.85l-6.79 53.38c-2.13,16.99 -2.7,30.8 -1.72,41.44 0.61,6.77 2.93,16.44 7.03,29.14l-36.59 0c-2.62,-7.05 -4.87,-15.88 -6.68,-26.72zm6.05 -82.25c-4.94,2 -10.25,3.59 -15.96,4.62 -5.77,1.11 -15.42,2.28 -28.91,3.46 -20.92,1.87 -35.53,4.28 -43.93,7.18 -8.4,2.9 -14.53,7.53 -18.32,13.88 -3.85,6.36 -5.4,13.33 -4.69,21 0.94,10.28 5.19,18.71 12.82,25.28 7.58,6.63 17.85,9.94 30.83,9.94 12.02,0 23.27,-3.18 33.73,-9.59 10.48,-6.42 18.4,-15.34 23.83,-26.8 5.37,-11.46 8.93,-27.76 10.6,-48.96z"/>
  <path id="5" class="fil1" d="M1056.33 198.5l4.81 -41.43 35.98 0 -4.81 41.43 -35.98 0zm-83.9 336.1l3.57 -31.14c8.53,2.21 16.01,3.31 22.43,3.31 7.72,0 13.69,-2.62 17.85,-7.8 4.1,-5.18 7.56,-19.61 10.38,-43.23l25.1 -217.04 35.92 0 -25.79 223.68c-3.17,28.03 -8.04,47.1 -14.55,57.24 -8.8,13.54 -22.11,20.31 -40,20.31 -9.49,0 -21.12,-1.8 -34.89,-5.32z"/>
  <path id="6" class="fil1" d="M1258.42 427.02c-11.56,10.91 -22.92,18.85 -34,23.82 -11.15,4.97 -23.35,7.46 -36.59,7.46 -19.6,0 -35.9,-5.8 -49,-17.47 -13.07,-11.6 -20.46,-26.52 -22.12,-44.68 -1.1,-12.02 0.67,-22.58 5.21,-31.83 4.55,-9.18 11.05,-16.57 19.41,-22.16 8.43,-5.59 18.99,-9.6 31.74,-12.02 8.04,-1.66 23.43,-2.9 46.15,-3.87 22.72,-0.97 38.89,-3.38 48.43,-7.25 1.88,-10.01 2.56,-18.3 1.95,-24.93 -0.78,-8.49 -4.46,-15.13 -11.06,-20.03 -9.08,-6.69 -21.69,-10.08 -37.93,-10.08 -15.24,0 -27.42,3.39 -36.55,10.22 -9.06,6.84 -15.21,16.57 -18.5,29.13l-36.77 -3.31c5.5,-21.26 15.82,-37.57 30.97,-48.89 15.14,-11.33 35.04,-16.99 59.69,-16.99 26.21,0 47.55,6.36 64.07,18.99 12.55,9.46 19.55,21.75 20.93,36.8 1.05,11.46 0.63,24.72 -1.27,39.85l-6.78 53.38c-2.14,16.99 -2.71,30.8 -1.73,41.44 0.61,6.77 2.93,16.44 7.03,29.14l-36.59 0c-2.62,-7.05 -4.87,-15.88 -6.68,-26.72zm6.05 -82.25c-4.94,2 -10.25,3.59 -15.96,4.62 -5.77,1.11 -15.42,2.28 -28.91,3.46 -20.92,1.87 -35.53,4.28 -43.93,7.18 -8.41,2.9 -14.54,7.53 -18.33,13.88 -3.85,6.36 -5.39,13.33 -4.69,21 0.94,10.28 5.19,18.71 12.83,25.28 7.57,6.63 17.84,9.94 30.82,9.94 12.02,0 23.27,-3.18 33.73,-9.59 10.48,-6.42 18.4,-15.34 23.83,-26.8 5.37,-11.46 8.93,-27.76 10.6,-48.96z"/>
  <path id="7" class="fil1" d="M1345.34 453.74l24.8 -215.04 33.05 0 -4.21 37.57c13.07,-14.64 25.54,-25.34 37.48,-32.04 11.96,-6.69 24.41,-10.08 37.53,-10.08 17.41,0 31.51,4.77 42.27,14.23 10.76,9.46 16.91,22.1 18.36,37.98 0.73,7.95 0.03,20.44 -2.09,37.57l-16.85 129.83 -35.98 0 17.37 -135.97c1.72,-13.26 2.34,-23 1.75,-29.35 -0.65,-7.11 -3.64,-12.91 -9.02,-17.33 -5.41,-4.49 -12.77,-6.7 -22.2,-6.7 -18.92,0 -35.1,6.7 -48.68,20.17 -13.51,13.46 -22.26,36.53 -26.16,69.19l-11.46 99.99 -35.98 0z"/>
  <path id="8" class="fil1" d="M1713.59 422.6c-18.52,23.82 -39,35.7 -61.47,35.7 -20.15,0 -37.56,-7.53 -52.32,-22.51 -14.76,-14.99 -23.44,-36.81 -26.06,-65.33 -2.4,-26.1 0.73,-50 9.34,-71.61 8.6,-21.62 20.37,-37.78 35.29,-48.55 14.92,-10.77 30.4,-16.16 46.38,-16.16 26.35,0 47.47,12.85 63.28,38.54l13.37 -115.6 36.06 0 -33.86 296.66 -33.58 0 3.57 -31.14zm-104.42 -59.04c1.36,14.92 3.95,26.72 7.67,35.29 3.73,8.63 9.37,15.74 16.99,21.47 7.56,5.73 16.29,8.56 26.18,8.56 16.46,0 30.56,-8.63 42.29,-25.82 15.81,-22.79 22.16,-51.04 19.09,-84.6 -1.55,-16.92 -7.14,-30.18 -16.83,-39.78 -9.69,-9.53 -21.25,-14.29 -34.57,-14.29 -8.67,0 -16.41,1.93 -23.22,5.88 -6.74,3.86 -13.23,10.49 -19.41,19.82 -6.11,9.32 -10.96,21.2 -14.42,35.56 -3.52,14.44 -4.76,27.07 -3.77,37.91z"/>
  <path id="9" class="fil1" d="M1800.1 372.04c-3.83,-41.85 5.21,-76.52 27.07,-103.99 18.07,-22.58 43.4,-33.91 76.1,-33.91 25.53,0 46.89,8.08 64.07,24.24 17.12,16.16 26.98,37.98 29.49,65.39 2.26,24.65 -0.55,47.58 -8.52,68.78 -7.88,21.21 -20.46,37.5 -37.59,48.76 -17.2,11.33 -35.79,16.98 -55.94,16.98 -16.51,0 -31.87,-3.59 -46.04,-10.7 -14.25,-7.11 -25.49,-17.26 -33.78,-30.31 -8.37,-13.06 -13.29,-28.11 -14.87,-45.24zm35.73 -3.59c1.85,20.24 8.11,35.57 18.68,45.99 10.59,10.43 23.36,15.67 38.24,15.67 7.79,0 15.35,-1.59 22.64,-4.76 7.36,-3.18 14.03,-7.95 19.98,-14.44 6.04,-6.49 10.95,-13.88 14.77,-22.16 3.88,-8.29 6.83,-17.2 8.74,-26.8 2.94,-13.33 3.83,-26.1 2.7,-38.39 -1.78,-19.41 -8,-34.46 -18.69,-45.16 -10.74,-10.7 -23.46,-16.09 -38.21,-16.09 -11.4,0 -21.53,2.77 -30.38,8.21 -8.93,5.46 -16.67,13.4 -23.27,23.96 -6.62,10.5 -11.02,22.72 -13.29,36.67 -2.28,13.95 -2.91,26.39 -1.91,37.29z"/>
  <path id="10" class="fil1" d="M2133.48 536.19l34.18 -297.5 33.46 0 -3.39 30.11c11.17,-13.05 21.47,-22.1 30.83,-27.14 9.31,-5.04 19.46,-7.53 30.45,-7.53 20.29,0 37.76,7.46 52.51,22.31 14.68,14.92 23.32,36.18 25.86,63.95 2.04,22.31 0.23,42.68 -5.47,61.04 -5.62,18.37 -13.28,33.15 -22.98,44.34 -9.69,11.18 -19.73,19.41 -30.24,24.65 -10.44,5.25 -21.47,7.87 -32.94,7.87 -25.54,0 -46.54,-13.12 -63.01,-39.36l-13.29 117.25 -35.98 0zm55.75 -170.15c1.47,16.02 3.65,27.07 6.47,33.21 4.15,8.77 10.33,15.82 18.39,21.13 8.14,5.39 17.27,8.08 27.3,8.08 20.83,0 36.61,-11.81 47.35,-35.49 10.67,-23.62 14.87,-47.79 12.61,-72.45 -1.66,-18.16 -7.26,-32.18 -16.83,-42.12 -9.52,-9.88 -20.68,-14.85 -33.59,-14.85 -9.22,0 -17.53,2.49 -25,7.39 -7.47,4.9 -14.1,12.29 -19.96,22.1 -5.86,9.8 -10.36,21.75 -13.5,35.98 -3.08,14.15 -4.2,26.51 -3.24,37.01z"/>
  <path id="11" class="fil1" d="M2511.5 427.02c-11.56,10.91 -22.92,18.85 -34,23.82 -11.15,4.97 -23.35,7.46 -36.6,7.46 -19.59,0 -35.9,-5.8 -48.99,-17.47 -13.07,-11.6 -20.46,-26.52 -22.12,-44.68 -1.1,-12.02 0.67,-22.58 5.21,-31.83 4.55,-9.18 11.05,-16.57 19.41,-22.16 8.43,-5.59 18.99,-9.6 31.74,-12.02 8.04,-1.66 23.43,-2.9 46.15,-3.87 22.72,-0.97 38.89,-3.38 48.43,-7.25 1.88,-10.01 2.56,-18.3 1.95,-24.93 -0.78,-8.49 -4.46,-15.13 -11.06,-20.03 -9.08,-6.69 -21.69,-10.08 -37.93,-10.08 -15.24,0 -27.42,3.39 -36.55,10.22 -9.07,6.84 -15.21,16.57 -18.5,29.13l-36.77 -3.31c5.5,-21.26 15.82,-37.57 30.96,-48.89 15.14,-11.33 35.05,-16.99 59.69,-16.99 26.22,0 47.56,6.36 64.08,18.99 12.55,9.46 19.55,21.75 20.93,36.8 1.05,11.46 0.62,24.72 -1.27,39.85l-6.79 53.38c-2.13,16.99 -2.7,30.8 -1.72,41.44 0.61,6.77 2.93,16.44 7.03,29.14l-36.59 0c-2.62,-7.05 -4.87,-15.88 -6.68,-26.72zm6.05 -82.25c-4.94,2 -10.25,3.59 -15.96,4.62 -5.77,1.11 -15.42,2.28 -28.91,3.46 -20.92,1.87 -35.53,4.28 -43.93,7.18 -8.41,2.9 -14.54,7.53 -18.33,13.88 -3.85,6.36 -5.39,13.33 -4.69,21 0.94,10.28 5.19,18.71 12.82,25.28 7.58,6.63 17.85,9.94 30.83,9.94 12.02,0 23.27,-3.18 33.73,-9.59 10.48,-6.42 18.4,-15.34 23.83,-26.8 5.37,-11.46 8.93,-27.76 10.6,-48.96z"/>
  <path id="12" class="fil1" d="M2598.82 453.74l24.54 -215.04 32.3 0 -5.12 43.99c9.55,-16.51 19.15,-28.73 28.94,-36.67 9.72,-7.95 20.08,-11.88 31,-11.88 7.17,0 16.29,2.62 27.29,7.87l-11.64 33.98c-6.72,-4.69 -13.82,-7.05 -21.26,-7.05 -12.71,0 -25.09,7.19 -37.16,21.48 -12.07,14.29 -20.31,39.98 -24.61,77.13l-9.85 86.19 -34.42 0z"/>
  <path id="13" class="fil1" d="M2875.78 427.02c-11.56,10.91 -22.92,18.85 -34,23.82 -11.16,4.97 -23.36,7.46 -36.6,7.46 -19.59,0 -35.9,-5.8 -48.99,-17.47 -13.07,-11.6 -20.46,-26.52 -22.12,-44.68 -1.1,-12.02 0.66,-22.58 5.21,-31.83 4.55,-9.18 11.04,-16.57 19.41,-22.16 8.43,-5.59 18.99,-9.6 31.74,-12.02 8.04,-1.66 23.43,-2.9 46.15,-3.87 22.72,-0.97 38.88,-3.38 48.43,-7.25 1.88,-10.01 2.56,-18.3 1.94,-24.93 -0.77,-8.49 -4.46,-15.13 -11.06,-20.03 -9.07,-6.69 -21.68,-10.08 -37.92,-10.08 -15.24,0 -27.42,3.39 -36.55,10.22 -9.07,6.84 -15.21,16.57 -18.5,29.13l-36.77 -3.31c5.5,-21.26 15.81,-37.57 30.96,-48.89 15.14,-11.33 35.05,-16.99 59.69,-16.99 26.22,0 47.56,6.36 64.08,18.99 12.54,9.46 19.54,21.75 20.93,36.8 1.04,11.46 0.62,24.72 -1.27,39.85l-6.79 53.38c-2.14,16.99 -2.71,30.8 -1.73,41.44 0.62,6.77 2.94,16.44 7.04,29.14l-36.59 0c-2.63,-7.05 -4.87,-15.88 -6.68,-26.72zm6.05 -82.25c-4.94,2 -10.25,3.59 -15.96,4.62 -5.77,1.11 -15.42,2.28 -28.91,3.46 -20.92,1.87 -35.53,4.28 -43.93,7.18 -8.4,2.9 -14.53,7.53 -18.32,13.88 -3.86,6.36 -5.4,13.33 -4.69,21 0.94,10.28 5.19,18.71 12.82,25.28 7.58,6.63 17.85,9.94 30.83,9.94 12.02,0 23.27,-3.18 33.73,-9.59 10.48,-6.42 18.4,-15.34 23.83,-26.8 5.37,-11.46 8.93,-27.76 10.6,-48.96z"/>
  <path id="14" class="fil1" d="M3158.46 424.04l-3.26 29.98c-8.46,2.28 -16.75,3.45 -24.87,3.45 -14.41,0 -26.14,-3.59 -35.33,-10.77 -6.84,-5.38 -10.74,-12.77 -11.59,-22.1 -0.43,-4.69 0.27,-15.61 2.2,-32.59l14.34 -125.13 -28.69 0 3.15 -28.18 28.68 0 6.16 -52.69 39.14 -25.21 -9.25 77.9 35.64 0 -3.57 28.18 -35.23 0 -13.68 118.99c-1.68,15.12 -2.35,24.17 -2.09,27.13 0.4,4.36 1.93,7.67 4.61,9.95 2.66,2.28 6.79,3.46 12.39,3.46 7.99,0 15.08,-0.77 21.22,-2.35z"/>
  <path id="15" class="fil1" d="M3219.38 198.5l4.8 -41.43 36 0 -4.81 41.43 -35.99 0zm-29.45 255.24l24.81 -215.04 35.98 0 -24.8 215.04 -35.99 0z"/>
  <path class="fil0" d="M2964.92 1002.09c-68.8,47.64 -108.59,132.92 -35.59,198.75 236.37,213.19 484.13,340.93 717.72,504.08 111.38,91.46 96,163.35 42.39,259.74 -32.42,58.3 -190.19,150.35 -330,233.59 310.23,-67.06 574.83,-139.33 711.91,-226.18 136.91,-86.74 133.72,-199.35 -48.2,-304.05 -227.1,-130.7 -668.3,-236.91 -982.59,-511.69 -47.16,-41.23 -81.66,-74.44 -75.64,-154.25z"/>
  <path class="fil0" d="M3873.92 687.3c-175.54,92.27 -379.85,92.32 -348.53,241.01 42.87,203.57 657.37,326 841.69,422.71 88.87,46.62 166.25,59.71 185.4,112.16 26.72,-67.17 39.08,-132.15 -111.24,-204.86 -210.87,-102 -447.84,-150.52 -641.47,-285.51 -178.68,-124.56 22.86,-189.1 74.15,-285.51z"/>
  <path class="fil0" d="M3712.45 570.36l202 0 0 -88.99c146.84,-55.24 187.99,-198.38 0,-272.54l0 -22.25 70.76 0c73.95,37 140.72,34.89 204.13,0 50.42,-27.74 39.79,-52.08 0,-81.19 -65.44,-47.86 -133.29,-43.35 -204.13,0l-70.76 0c0,-140.35 -201.99,-140.69 -202,0l-65.4 0c-63.56,-36.17 -125.92,-48.21 -196.36,-11.68 -40.71,21.1 -73.08,52.75 -13.91,95.1 57.17,40.92 135.74,39.31 210.27,-2.22l65.41 0 0 28.92c-210.05,93.59 -92.9,222.99 0,265.86l-0.01 88.99z"/>
  <path class="fil0" d="M3815.62 636c-517.55,148 -883.2,279.34 -772.33,422.07 212.26,273.3 741.96,394.95 1140.17,580.28 230.17,130.12 193.43,253.91 65.82,367.08 302.83,-105.86 535.51,-230.92 432.89,-376.35 -346.87,-280.19 -839.5,-361.02 -1201.34,-604.38 -201.07,-135.22 -2.77,-275.8 334.8,-388.7z"/>
 </g>
</svg>
