<?xml version="1.0" ?><!DOCTYPE svg  PUBLIC '-//W3C//DTD SVG 1.1//EN'  'http://www.w3.org/Graphics/SVG/1.1/DTD/svg11.dtd'><svg height="512px" style="enable-background:new 0 0 512 512;" version="1.1" viewBox="0 0 512 512" width="512px" xml:space="preserve" xmlns="http://www.w3.org/2000/svg" xmlns:xlink="http://www.w3.org/1999/xlink"><g id="Care_x2C__ecology_x2C__water_x2C__hand"><g><path d="M332.653,273.723c-26.819,0.959-49.077-22.609-50.165-53.113    c-1.081-30.413,38.375-106.251,38.375-106.251s56.957,72.396,58.042,102.808C379.993,247.665,359.398,272.764,332.653,273.723    L332.653,273.723z" style="fill-rule:evenodd;clip-rule:evenodd;fill:#61BDD0;"/><path d="M430.629,267.742c-26.069,13.251-91.9,39.244-92.495,39.852    l-2.08,0.673l1.227,1.295c9.988,8.805,15.105,18.329,13.155,26.462c-2.395,12.137-16.065,19.647-39.006,22.594    c-20.137,2.563-45.751,1.631-75.835-3.812c2.975-0.106,6.919-0.249,10.329,0.103c21.801-1.067,42.034-1.785,57.869-3.609    c24.521-3.005,35.807-9.631,37.063-20.189c0.4-7.035-3.257-12.724-11.98-16.837c-9.285-5.134-28.532-7.36-47.538-10.356    c-12.654-1.626-24.476-3.038-33.025-5.352c-29.997-7.872-60.59-15.654-95.661-11.226c-5.542,1.174-11.204,1.685-16.235,3.185    c-27.203,6.47-53.368,14.438-80.587,24.56l-3.438,0.686l43.577,65.671c7.052-2.089,14.492-4.156,21.858-4.706    c9.839-1.604,18.803-1.759,27.832-0.708c11.327,1.881,39.878,7.535,67.21,12.812c28.291,6.014,55.41,10.825,65.504,11.998    c6.317,0.819,11.566,0.634,17.559-0.048c13.452-1.838,27.364-10.691,40.47-19.257c4.248-3.315,8.32-5.629,12.115-8.353    l109.743-73.024C501.739,271.243,463.806,250.889,430.629,267.742L430.629,267.742z" style="fill-rule:evenodd;clip-rule:evenodd;fill:#FDC895;"/><path d="M325.342,270.694c-26.831,0.961-49.078-22.609-50.178-53.112    c-1.075-30.413,44.442-107.264,44.442-107.264s50.891,73.403,51.977,103.815C372.672,244.637,352.076,269.734,325.342,270.694    L325.342,270.694z" style="fill-rule:evenodd;clip-rule:evenodd;fill:#6BCCE0;"/><path d="M38.288,273.973h54.275c2.269,0,4.108,1.839,4.108,4.095    v119.507c0,2.255-1.839,4.107-4.108,4.107H38.288c-2.257,0-4.102-1.853-4.102-4.107V278.067    C34.186,275.812,36.03,273.973,38.288,273.973L38.288,273.973z" style="fill-rule:evenodd;clip-rule:evenodd;fill:#445F68;"/><rect height="8.965" style="fill-rule:evenodd;clip-rule:evenodd;fill:#FFFFFF;" width="28.39" x="40.118" y="385.245"/><path d="M298.398,250.212c-9.109-6.242-13.996-26.245-10.91-44.67    c1.523-9.071,4.689-16.063,8.592-20.094c-5.202,3.177-9.605,11.225-11.476,22.445c-3.086,18.43,1.791,38.428,10.899,44.67    c4.631,3.171,9.455,2.183,13.49-1.974C305.642,252.632,301.964,252.654,298.398,250.212L298.398,250.212z" style="fill-rule:evenodd;clip-rule:evenodd;fill:#88D4E4;"/></g></g><g id="Layer_1"/></svg>